<?xml version="1.0" encoding="utf-8"?>
<!DOCTYPE svg PUBLIC "-//W3C//DTD SVG 1.0//EN" "http://www.w3.org/TR/2001/REC-SVG-20010904/DTD/svg10.dtd">
<svg version="1.0" xmlns="http://www.w3.org/2000/svg" width="705px" height="705px" viewBox="0 0 705 705" preserveAspectRatio="xMidYMid meet">
 <g fill="#3f65c5">
  <path d="M117.50 701.15 c-24 -0.75 -38.85 -3.05 -50.65 -7.70 -14 -5.55 -24.85 -12.55 -34.80 -22.50 -10.40 -10.40 -17.40 -21.40 -22.80 -35.90 -3.80 -10.20 -5.65 -19.90 -6.85 -36.55 -0.95 -12.95 -0.95 -480.25 0 -493 1.60 -21.55 4.40 -33.15 11.45 -47.25 11.60 -23.25 32.10 -40.85 57.40 -49.20 9.30 -3.10 17.05 -4.40 33.50 -5.65 12.40 -0.95 480.80 -0.95 493.75 0 16.95 1.25 26.20 3 36.70 6.90 24.35 9.10 42.65 25.50 54.20 48.50 5.05 10.15 7.95 19.50 9.55 31.20 1.75 12.35 2.10 20.70 2.40 52.40 l0.30 30.60 -33.85 0 -33.80 0 0 4.45 0 4.40 5.15 0.35 c11.90 0.80 19 2.35 25.85 5.65 7.75 3.75 12.85 9.95 14.45 17.55 0.85 4.15 0.65 13.20 -0.45 20 -2.05 12.55 -4.70 21.90 -11.75 41.10 -4.70 12.95 -28 76.10 -34.25 93 -4.75 12.85 -34.80 94.45 -42.10 114.40 l-3.55 9.60 -1.65 0 c-1.50 0 -1.70 -0.20 -2.60 -2.60 -0.55 -1.45 -6.55 -17.05 -13.35 -34.65 -6.80 -17.60 -21.20 -54.95 -32 -83 -10.80 -28.05 -25.75 -66.85 -33.25 -86.25 -22.65 -58.70 -22.50 -58.25 -22.50 -67.35 0.05 -11.85 3.65 -18.70 12.15 -22.90 5.60 -2.75 13.05 -3.95 28.30 -4.55 l8.05 -0.35 0 -4.45 0 -4.40 -86 0 -86 0 0 4.50 0 4.50 2.90 0 c4.60 0 14 1 18.90 2 14.40 2.95 25.10 11.45 32.30 25.75 1.10 2.15 9.10 21.95 17.70 43.90 13.25 33.75 15.70 40.35 15.70 42.45 0 2.60 0.25 1.90 -59.30 159.85 -5.35 14.15 -9.70 25.75 -9.70 25.85 0 0.10 -0.75 0.20 -1.65 0.20 l-1.65 0 -14.55 -37.85 c-8.05 -20.85 -29.25 -76.05 -47.15 -122.65 -33.25 -86.45 -36.15 -94.10 -37.95 -100.55 -3.65 -12.95 -1.95 -24.95 4.30 -30.45 5.55 -4.85 12.80 -7 27.80 -8.05 l8.35 -0.65 0 -4.40 0 -4.40 -78.50 0 -78.50 0 0 4.45 0 4.40 4.45 0.60 c18.95 2.40 31.25 10.75 40.55 27.50 4.55 8.20 12.10 24.95 20.15 44.80 9.05 22.15 17.05 43.50 52.85 141 25.75 70.10 38.50 106.05 70.35 198.90 l5.30 15.35 3.65 0 c2.05 0 3.70 -0.20 3.70 -0.50 0 -0.25 19.05 -52.85 42.30 -116.85 40.40 -111.25 56.25 -154.75 57.30 -157.75 0.40 -1.15 0.80 -1.40 2.10 -1.40 l1.65 0 25.30 65.40 c13.90 35.95 31.40 81.10 38.85 100.35 8.80 22.65 18.05 47.85 26.35 71.50 7 20.05 13 37.15 13.25 37.90 0.50 1.35 0.60 1.40 4.05 1.25 l3.50 -0.15 4.65 -14 c2.55 -7.70 11.20 -33.90 19.25 -58.25 8.85 -26.85 19.50 -57.80 27.05 -78.75 6.90 -18.95 14.15 -39.10 16.15 -44.75 2.05 -5.65 10.55 -29.35 18.90 -52.75 8.35 -23.35 20.60 -57.50 27.15 -75.85 l11.95 -33.40 1.65 0 1.65 0 -0.20 170.40 c-0.10 127.70 -0.30 172.10 -0.75 177.35 -1.90 21.70 -4.60 32.40 -11.95 46.85 -9.25 18.35 -24.35 33.30 -42.90 42.55 -13.65 6.80 -25.05 9.65 -45.75 11.40 -5.60 0.50 -60.25 0.65 -242.75 0.70 -129.55 0.05 -237.40 0 -239.75 -0.10z"/>
 </g>
 <g fill="#ffffff">
  <path d="M0 352.50 l0 -352.50 352.50 0 352.50 0 0 352.50 0 352.50 -352.50 0 -352.50 0 0 -352.50z m598.50 346.55 c20.70 -1.75 32.10 -4.60 45.75 -11.40 18.55 -9.25 33.65 -24.20 42.90 -42.55 7.35 -14.45 10.05 -25.15 11.95 -46.85 0.90 -10.85 1.10 -345.70 0.20 -343.25 -0.70 1.80 -12.70 35.25 -36.15 100.75 -23.40 65.35 -24.85 69.45 -37.55 104.50 -7.55 20.85 -18.25 52 -27.05 78.75 -8.05 24.35 -16.70 50.55 -19.25 58.25 l-4.65 14 -5 0.15 -5.05 0.15 -0.50 -1.40 c-0.25 -0.75 -6.25 -17.85 -13.25 -37.90 -8.30 -23.65 -17.55 -48.85 -26.35 -71.50 -7.45 -19.25 -24.95 -64.45 -38.85 -100.40 -14.15 -36.50 -25.50 -65.10 -25.70 -64.75 -0.15 0.35 -2.85 7.65 -5.95 16.15 -3.10 8.55 -25.50 70.25 -49.80 137.15 -24.30 66.90 -44.20 121.85 -44.20 122.10 0 0.30 -2.20 0.50 -5.20 0.50 l-5.15 0 -5.30 -15.35 c-31.85 -92.85 -44.60 -128.80 -70.35 -198.90 -35.80 -97.50 -43.80 -118.85 -52.85 -141 -8.05 -19.85 -15.60 -36.60 -20.15 -44.80 -9.30 -16.75 -21.60 -25.10 -40.55 -27.50 l-4.45 -0.60 0 -5.90 0 -5.95 80 0 80 0 0 5.90 0 5.90 -8.35 0.65 c-15 1.05 -22.25 3.20 -27.80 8.05 -6.05 5.35 -7.65 15.45 -4.30 27.45 1.80 6.45 4.65 14 37.95 100.55 17.90 46.60 39.10 101.80 47.10 122.60 8.05 20.85 14.65 37.80 14.75 37.75 0.05 -0.10 4.50 -11.75 9.85 -25.90 49.65 -131.75 59.30 -157.45 59.30 -158.35 0 -1.40 -30.90 -79.95 -33.40 -84.85 -7.20 -14.30 -17.90 -22.80 -32.30 -25.75 -4.90 -1 -14.30 -2 -18.90 -2 l-2.90 0 0 -6 0 -6 87.50 0 87.50 0 0 5.90 0 5.95 -8.05 0.35 c-15.25 0.60 -22.70 1.80 -28.30 4.55 -8.05 4 -12.10 11.10 -12.15 21.40 0 7.40 0.45 8.70 22.50 65.85 12.40 32.20 30.75 79.80 66 171.25 7.20 18.70 13.25 34.30 13.45 34.65 0.25 0.45 1.80 -3.10 3.95 -9 7.30 -19.90 37.35 -101.50 42.10 -114.40 6.25 -16.90 29.55 -80.05 34.25 -93 7.05 -19.20 9.70 -28.55 11.75 -41.10 2.30 -14.20 0.55 -22.30 -6.25 -29.20 -6.35 -6.45 -16.80 -9.85 -33.60 -11 l-5.15 -0.35 0 -5.90 0 -5.95 33.80 0 33.85 0 -0.30 -29.10 c-0.40 -43.90 -1.75 -56.50 -7.65 -72.25 -10.30 -27.50 -30.80 -48 -58.50 -58.35 -10.50 -3.90 -19.75 -5.65 -36.70 -6.90 -12.95 -0.95 -478.35 -0.95 -490.75 0 -16.45 1.25 -24.20 2.55 -33.50 5.65 -25.30 8.35 -45.80 25.95 -57.40 49.20 -7.05 14.10 -9.85 25.70 -11.45 47.25 -0.95 12.75 -0.95 477.05 0 490 1.20 16.65 3.05 26.35 6.85 36.55 10.35 27.70 29.75 47.35 57.60 58.40 11.80 4.65 26.65 6.95 50.65 7.70 2.35 0.10 109.55 0.15 238.25 0.10 181.30 -0.05 235.65 -0.20 241.25 -0.70z"/>
 </g>
</svg>