<?xml version="1.0" encoding="utf-8"?>
<!DOCTYPE svg PUBLIC "-//W3C//DTD SVG 1.0//EN" "http://www.w3.org/TR/2001/REC-SVG-20010904/DTD/svg10.dtd">
<svg version="1.0" xmlns="http://www.w3.org/2000/svg" width="1044px" height="1038px" viewBox="0 0 1044 1038" preserveAspectRatio="xMidYMid meet">
 <g fill="#2b4ebd">
  <path d="M485.5 1013 c-34.3 -2.6 -75.3 -9.9 -104 -18.6 -14.2 -4.4 -23.9 -7.5 -27 -8.9 -1.6 -0.7 -4.1 -1.6 -5.5 -2 -1.4 -0.3 -3.4 -1 -4.5 -1.5 -28.4 -11.9 -50.8 -22.6 -67.3 -32.1 -4.7 -2.7 -8.6 -4.9 -8.8 -4.9 -0.2 0 -4 -2.5 -8.5 -5.5 -4.5 -3 -8.5 -5.5 -8.9 -5.5 -0.5 0 -1 -0.3 -1.2 -0.8 -0.1 -0.4 -2.7 -2.3 -5.6 -4.1 -3 -1.9 -5.9 -3.9 -6.5 -4.5 -0.7 -0.6 -3.7 -2.8 -6.8 -4.8 -3 -2.1 -6.9 -5 -8.7 -6.5 -1.7 -1.6 -4.5 -3.9 -6.3 -5.3 -23.4 -18.5 -60.3 -55.3 -77.4 -77.4 -1.1 -1.4 -3.2 -4 -4.8 -5.8 -1.5 -1.7 -4.4 -5.7 -6.5 -8.7 -2 -3.1 -3.9 -5.8 -4.2 -6.1 -0.9 -0.8 -8 -11 -8 -11.4 0 -0.2 -2.8 -4.6 -6.3 -9.7 -3.5 -5.2 -6.6 -10.1 -7 -10.9 -0.4 -0.8 -1.8 -3.3 -3.1 -5.5 -3.2 -5.3 -25.6 -49.7 -25.6 -50.7 0 -0.4 -1.2 -3.3 -2.6 -6.5 -1.4 -3.2 -3 -6.8 -3.5 -8 -0.5 -1.3 -1.3 -3.3 -1.8 -4.5 -0.6 -1.3 -1.3 -3.4 -1.6 -4.8 -0.4 -1.4 -1.3 -3.8 -2 -5.5 -3.2 -7.5 -10.3 -31.2 -14.5 -48.2 -21.3 -87.7 -18 -178 9.9 -264.8 2.9 -8.8 5.8 -17.4 6.6 -19.2 0.8 -1.7 1.5 -3.6 1.5 -4.2 0 -0.6 0.9 -3 1.9 -5.3 1.1 -2.4 2.8 -6.3 3.9 -8.8 11.5 -26.6 25 -52.7 36 -69.4 2.5 -3.9 5.3 -8.3 6 -9.9 0.8 -1.5 1.8 -2.7 2.3 -2.7 0.5 0 0.9 -0.6 0.9 -1.4 0 -0.8 0.3 -1.6 0.8 -1.8 0.4 -0.1 2 -2.3 3.6 -4.7 3.3 -5.1 3.4 -5.2 7.6 -10.2 1.6 -2 3 -4.1 3 -4.6 0 -0.5 0.8 -1.6 1.7 -2.5 1 -1 3.4 -3.8 5.3 -6.3 13.9 -18.2 53.5 -58.8 71 -72.5 1.4 -1.1 3.7 -3 5.2 -4.3 2.5 -2 4.7 -3.8 9.7 -7.7 1.1 -0.8 2.9 -2.2 4.1 -3 1.2 -0.8 3.4 -2.5 4.8 -3.7 1.5 -1.3 3 -2.3 3.4 -2.3 0.4 0 1.3 -0.6 2 -1.3 2.1 -2.1 25.2 -17.6 28.8 -19.3 0.8 -0.4 3.3 -1.9 5.5 -3.3 2.2 -1.4 8.7 -5 14.5 -7.9 5.8 -3 11.2 -6.1 12.1 -6.8 0.8 -0.8 1.9 -1.4 2.3 -1.4 0.6 0 22.1 -9.7 26.8 -12.1 4 -2 25.4 -10.1 36.8 -13.9 30.7 -10.2 66.6 -17.8 104.5 -22.2 17.5 -2.1 84.2 -1.7 102.5 0.6 17 2.1 37.8 5.6 53.4 9.1 12.7 2.9 38.7 10.1 43.1 12 1.7 0.7 6.6 2.4 11 3.8 4.4 1.4 12.1 4.2 17 6.2 5 2 9.9 4 11 4.5 4.1 1.7 43.2 21.1 48.5 24.1 3 1.7 6.8 3.8 8.5 4.8 1.6 0.9 5.8 3.5 9.3 5.9 3.5 2.3 6.6 4.2 6.8 4.2 0.9 0 9.9 6.3 10.2 7.2 0.2 0.4 1 0.8 1.8 0.8 0.8 0 1.4 0.4 1.4 0.9 0 0.5 0.8 1.2 1.8 1.5 0.9 0.3 2.9 1.6 4.4 2.8 1.4 1.3 3.6 3 4.8 3.8 1.2 0.8 3 2.2 4 3 1 0.8 2.8 2.2 4 3 1.3 0.8 3.3 2.4 4.6 3.5 2.3 2 5.5 4.6 10.4 8.4 13.8 10.9 51 48.1 62 62.1 1.9 2.4 3.9 4.8 8.5 10.3 1.1 1.4 2.7 3.4 3.5 4.7 0.8 1.2 2.2 3 3 4 0.8 1 2.2 2.8 3 4 0.8 1.2 2.5 3.4 3.7 4.8 1.3 1.5 2.3 3 2.3 3.4 0 0.4 0.6 1.3 1.3 2 1.5 1.5 9.7 13.5 9.7 14.1 0 0.2 2.2 3.7 4.8 7.8 5.8 8.8 9 14.5 19.3 34.4 28.8 55.6 47 119.7 51.9 182.5 1.3 16.4 1.2 58.8 0 76.5 -3.6 49.9 -18 107.9 -38 153.5 -6.3 14.4 -18.8 39.6 -23.1 46.7 -2.2 3.5 -3.9 6.5 -3.9 6.7 0 0.9 -14.4 23.1 -15.2 23.4 -0.4 0.2 -0.8 1 -0.8 1.8 0 0.8 -0.3 1.4 -0.8 1.4 -0.4 0 -1.6 1.6 -2.6 3.5 -1 1.9 -2.6 4.2 -3.5 5.2 -0.9 1 -2.8 3.7 -4.3 5.9 -1.5 2.3 -3.7 5.3 -5 6.7 -1.3 1.4 -3 3.5 -3.8 4.7 -1.7 2.6 -4.3 5.8 -8.3 10.3 -1.5 1.8 -3.8 4.6 -5.1 6.2 -8.4 10.4 -48.5 49.9 -60.6 59.6 -1.4 1.1 -3.7 3 -5.2 4.2 -6 5 -7.6 6.3 -9.8 7.7 -1.2 0.8 -3.4 2.5 -4.8 3.8 -1.5 1.2 -4.3 3.3 -6.2 4.5 -1.9 1.2 -4.3 2.8 -5.2 3.7 -3.5 3.2 -30.7 20.1 -41.8 26 -3 1.6 -7.1 3.8 -9 5 -3.7 2.1 -14.5 7.4 -29 14 -36.9 16.7 -83.5 30.4 -125 36.5 -29.5 4.4 -77.5 6.5 -104.5 4.5z m57.4 -16.5 c80.6 -3.4 167.2 -32.9 237.4 -80.8 11.5 -7.9 11.7 -8 11.7 -11.8 0 -3.9 0 -3.9 3.9 -3.9 3.1 0 5 -0.9 10.1 -5 3.4 -2.7 6.8 -5 7.5 -5 2.1 0 24.9 -20.6 39.5 -35.6 63.9 -65.9 106.6 -147.4 124.4 -237.6 12.7 -63.9 11.1 -131.9 -4.3 -192.8 -4.9 -19.3 -10.9 -39.3 -15.8 -52.7 -4.1 -11.1 -4.8 -12.3 -6.9 -12.3 -2.1 0 -2.4 -0.5 -2.4 -3.4 0 -1.9 0.6 -3.7 1.3 -3.9 0.6 -0.3 -0.3 -0.6 -2 -0.6 -3.1 -0.1 -3.3 -0.3 -3.3 -3.5 0 -1.9 0.5 -3.6 1.2 -3.8 1.7 -0.6 -11.2 -28 -13.4 -28.6 -1.3 -0.3 -1.8 -1.4 -1.8 -3.6 0 -2.2 -2.6 -7.6 -8.1 -17.2 -80.9 -138.3 -228 -226.9 -386.9 -233.1 -10.1 -0.4 -16.8 -1 -17.3 -1.7 -0.6 -0.8 -1 -0.7 -1.4 0.2 -0.3 0.8 -2.8 1.2 -7.6 1.2 -9.7 0 -31.5 1.7 -46.7 3.6 -80.5 10.1 -156.8 40.7 -222.6 89.4 -16.7 12.4 -33.8 27.3 -51.4 45 -38.9 38.8 -66.5 77.4 -90.6 126.3 -23.6 48 -37.9 97.2 -45.1 154.7 -2.8 22.5 -2.5 79.4 0.5 102.1 11.6 87.8 42 162.7 93.4 230 25.2 33.1 60.8 68.2 94.7 93.3 76.5 56.7 170.1 89.1 265.6 91.9 9 0.3 11 0.3 36.4 -0.8z"/>
 </g>
 <g fill="#4065c5">
  <path d="M501.5 912.8 c-0.3 -0.7 -15 -43.6 -32.9 -95.3 -28.1 -81.5 -99.5 -278.3 -125.6 -346.5 -22.9 -59.7 -38.3 -94.5 -48.7 -110.2 -10.7 -16.3 -29 -27 -50.3 -29.4 l-6 -0.7 0 -11.3 0 -11.4 112 0 112 0 0 11.4 0 11.3 -10.6 0.7 c-21.5 1.4 -33.3 5.3 -40.4 13.3 -6.8 7.8 -7.7 18.2 -2.7 33.7 5 15.4 131.2 342.5 131.9 341.8 0.5 -0.5 77.2 -202.7 88.2 -232.8 l2.3 -6.1 -21.7 -54.9 c-11.9 -30.2 -22.4 -56.5 -23.4 -58.4 -9.2 -17.3 -23.4 -29.2 -40 -33.5 -7.5 -1.9 -20.3 -3.5 -27.8 -3.5 l-5.8 0 0 -11.5 0 -11.5 122.3 0.2 122.2 0.3 0 11 0 11 -14 0.7 c-27.2 1.5 -38.6 5.1 -45.7 14.3 -4.5 5.9 -6.2 12.5 -5.6 21.4 0.6 7.8 -4.8 -6.6 75.3 201.3 54.9 142.5 60.1 155.5 61.1 153 4.5 -10.4 112 -304.1 114.7 -313.2 5.1 -17.1 7.2 -28.3 7.1 -39 0 -8.3 -0.3 -10.1 -2.6 -14.6 -7 -13.3 -23.6 -21.1 -49.5 -23 l-9.3 -0.7 0 -11.3 0 -11.4 22.9 0 c17.3 0 23.2 0.3 23.8 1.3 1.3 2 12.2 25.5 16.5 35.6 9.2 21.7 18.6 50.5 24.3 74.6 1.4 6 3 11.4 3.4 12 2.4 3.3 1 9.6 -7.7 34 -5 13.8 -21.2 59.2 -36.2 101 -14.9 41.8 -36.5 101.9 -48 133.5 -11.4 31.6 -30.5 87.1 -42.4 123.2 -19.7 59.8 -21.9 65.9 -24.5 67.7 -1.6 1.2 -3.3 2.1 -3.8 2.1 -0.5 0 -4.9 3.1 -9.8 6.9 -4.9 3.9 -9.2 6.8 -9.6 6.5 -0.4 -0.2 -0.5 0.5 -0.2 1.6 1 3.7 -2.6 2.2 -4.2 -1.7 -0.9 -2.1 -9 -24.8 -18 -50.4 -14 -40 -116.2 -306.8 -118.4 -309.1 -0.4 -0.4 -30.7 82 -67.5 183.2 l-66.8 184 -10 0 c-7 0 -10 -0.4 -10.3 -1.2z"/>
  <path d="M452 63.5 c0 -0.8 0.7 -1.5 1.5 -1.5 0.8 0 1.5 -0.4 1.5 -1 0 -0.5 0.7 -1 1.5 -1 0.8 0 1.5 0.4 1.5 0.9 0 0.4 1.1 0.6 2.5 0.3 1.4 -0.2 2.5 -0.8 2.5 -1.3 0 -0.5 0.7 -0.9 1.5 -0.9 0.8 0 1.5 0.5 1.5 1.1 0 0.6 0.7 0.9 1.5 0.5 1 -0.3 1.5 0.1 1.5 1.3 0 1.5 -1.1 1.9 -6.1 2.5 -9.2 0.9 -10.9 0.8 -10.9 -0.9z"/>
  <path d="M554 60.9 c0 -1.5 0.5 -2 2.3 -1.8 1.2 0.2 2.8 0 3.5 -0.4 0.7 -0.5 1.2 -0.4 1.2 0.2 0 0.6 0.7 1.1 1.5 1.1 0.8 0 1.5 0.7 1.5 1.5 0 1.1 -1.2 1.5 -5 1.5 -4.4 0 -5 -0.3 -5 -2.1z"/>
  <path d="M540 59.9 c0 -1.9 0.4 -2.1 3.4 -1.6 2.2 0.3 3.7 0.1 4 -0.6 0.3 -0.9 0.5 -0.9 0.5 0.1 0.1 0.6 0.8 1.2 1.6 1.2 0.8 0 1.5 0.7 1.5 1.5 0 1.2 -1.3 1.5 -5.5 1.5 -4.9 0 -5.5 -0.2 -5.5 -2.1z"/>
  <path d="M510 59.5 c0 -0.8 0.7 -1.5 1.5 -1.5 0.8 0 1.5 -0.4 1.5 -1 0 -0.5 1.8 -1 4 -1 2.2 0 4 0.5 4 1 0 0.6 0.7 1 1.5 1 0.8 0 1.5 0.7 1.5 1.5 0 1.2 -1.4 1.5 -7 1.5 -5.6 0 -7 -0.3 -7 -1.5z"/>
 </g>
 <g fill="#ffffff">
  <path d="M503.5 1000.3 c-95.2 -2.7 -189.1 -35.2 -265.6 -91.9 -33.9 -25.1 -69.5 -60.2 -94.7 -93.3 -79.7 -104.5 -111.9 -236.2 -89.6 -367.1 11.9 -69.9 42.4 -141.4 84.6 -198.2 27.1 -36.4 63.7 -73.2 98.2 -98.8 65.8 -48.7 141.5 -79.1 222.6 -89.4 42.1 -5.4 92.2 -4.5 134.8 2.4 142.4 23.2 267.4 111.3 337 237.7 l5.1 9.3 -22.5 0 -22.4 0 0 8.4 0 8.3 9.3 0.7 c13.3 1 23.2 3.2 31.3 7 9.1 4.3 14.6 9.3 18.1 16.4 2.6 5.3 2.8 6.6 2.8 17.7 0 13.4 -1.7 23.2 -7.2 41.5 -3.5 11.8 -116.9 320.9 -118.2 322.3 -0.6 0.6 -112.6 -288.2 -134.1 -345.7 -4.7 -12.5 -6.1 -21.4 -4.9 -30.4 2.8 -20.2 14.9 -27 51.4 -29 l14 -0.7 0 -8 0 -8 -119.2 -0.3 -119.3 -0.2 0 8.5 0 8.5 5.8 0 c7.5 0 20.3 1.6 27.8 3.5 17 4.4 31.3 16.6 40.4 34.5 1.3 2.4 12.1 29.4 24 59.8 l21.8 55.4 -2.8 7.7 c-11.7 31.7 -91.3 241.7 -91.8 242.3 -0.7 0.7 -129.7 -333.9 -134.9 -349.8 -3.1 -9.5 -4.2 -24.1 -2.3 -30.9 3.7 -13.4 18 -20.3 45.4 -22.1 l10.6 -0.7 0 -8.3 0 -8.4 -109 0 -109 0 0 8.4 0 8.3 6 0.7 c21.3 2.4 39.6 13.1 50.3 29.4 8.5 12.7 19.7 37 35.7 77.2 25.6 64.1 101.7 272.4 139.5 382 l32.3 93.5 7 0.3 6.9 0.3 68.3 -188.1 c37.6 -103.4 68.7 -187.7 69.1 -187.3 0.3 0.5 24.5 62.5 53.6 137.8 33.9 87.6 59.2 154.8 70.3 186.3 9.5 27.1 17.1 49.4 16.9 49.6 -2.3 1.9 -27.6 18.7 -34.6 22.9 -58 35.1 -123.1 57.3 -190.8 65.2 -12 1.4 -52.3 3.7 -57 3.3 -1.1 -0.1 -6 -0.3 -11 -0.5z"/>
  <path d="M818.4 890.5 c0.3 -0.9 10.5 -31.8 22.7 -68.8 12.2 -37 31.5 -93.1 42.9 -124.7 18.6 -51.3 57.7 -160.4 85 -237 5.4 -15.1 10.1 -26.8 10.4 -26 1.2 3.3 4.8 25.4 6.7 41.5 2.7 22.1 3.6 63.2 2 85.6 -8.3 113.5 -53.9 215.8 -132.1 296.3 -12.3 12.7 -36.2 34.6 -37.6 34.6 -0.3 0 -0.3 -0.7 0 -1.5z"/>
 </g>
</svg>